<?xml version="1.0" encoding="UTF-8" standalone="no"?>
<!DOCTYPE svg PUBLIC "-//W3C//DTD SVG 1.1//EN"
 "http://www.w3.org/Graphics/SVG/1.1/DTD/svg11.dtd">
<!-- Generated by graphviz version 14.1.1 (20251213.1925)
 -->
<!-- Title: ContractCoverage Pages: 1 -->
<svg width="720pt" height="671pt"
 viewBox="48.00 48.00 672.00 623.00" xmlns="http://www.w3.org/2000/svg" xmlns:xlink="http://www.w3.org/1999/xlink">
<g id="graph0" class="graph" transform="scale(1.33333 1.33333) rotate(0) translate(40 463.12)">
<title>ContractCoverage</title>
<polygon fill="white" stroke="none" points="-4,4 -4,-427.12 464.31,-427.12 464.31,4 -4,4"/>
<text xml:space="preserve" text-anchor="middle" x="230.16" y="-409.62" font-family="Times New Roman,serif" font-size="10.00">simple_cors &#45; Contract Coverage</text>
<g id="clust1" class="cluster">
<title>cluster_SIMPLE_CORS</title>
<polygon fill="white" stroke="black" points="0,-19.37 0,-226.88 201.25,-226.88 201.25,-19.37 0,-19.37"/>
<text xml:space="preserve" text-anchor="middle" x="100.62" y="-209.57" font-family="Times New Roman,serif" font-size="14.00">SIMPLE_CORS</text>
</g>
<g id="clust2" class="cluster">
<title>cluster_LIB_TESTS</title>
<polygon fill="white" stroke="black" points="114.12,-265.88 114.12,-326.38 205.12,-326.38 205.12,-265.88 114.12,-265.88"/>
<text xml:space="preserve" text-anchor="middle" x="159.62" y="-309.08" font-family="Times New Roman,serif" font-size="14.00">LIB_TESTS</text>
</g>
<g id="clust3" class="cluster">
<title>cluster_TEST_APP</title>
<polygon fill="white" stroke="black" points="247.63,-228.38 247.63,-403.88 421.63,-403.88 421.63,-228.38 247.63,-228.38"/>
<text xml:space="preserve" text-anchor="middle" x="334.63" y="-386.57" font-family="Times New Roman,serif" font-size="14.00">TEST_APP</text>
</g>
<g id="clust4" class="cluster">
<title>cluster_legend</title>
<polygon fill="lightyellow" stroke="black" points="246.94,0 246.94,-188.25 460.31,-188.25 460.31,0 246.94,0"/>
<text xml:space="preserve" text-anchor="middle" x="353.63" y="-174.75" font-family="Times New Roman,serif" font-size="10.00">Legend</text>
</g>
<!-- SIMPLE_CORS_make -->
<g id="node1" class="node">
<title>SIMPLE_CORS_make</title>
<polygon fill="lightgray" stroke="black" points="201.25,-111.37 147.25,-111.37 147.25,-75.37 201.25,-75.37 201.25,-111.37"/>
<text xml:space="preserve" text-anchor="middle" x="174.25" y="-89.5" font-family="Times New Roman,serif" font-size="10.00">make</text>
</g>
<!-- SIMPLE_CORS_make_permissive -->
<g id="node2" class="node">
<title>SIMPLE_CORS_make_permissive</title>
<polygon fill="lightgray" stroke="black" points="86.5,-202.37 0,-202.37 0,-166.37 86.5,-166.37 86.5,-202.37"/>
<text xml:space="preserve" text-anchor="middle" x="43.25" y="-180.5" font-family="Times New Roman,serif" font-size="10.00">make_permissive</text>
</g>
<!-- SIMPLE_CORS_allow_all_origins_enabled -->
<g id="node3" class="node">
<title>SIMPLE_CORS_allow_all_origins_enabled</title>
<polygon fill="lightgray" stroke="black" points="126.38,-111.37 0.13,-111.37 0.13,-75.37 126.38,-75.37 126.38,-111.37"/>
<text xml:space="preserve" text-anchor="middle" x="63.25" y="-89.5" font-family="Times New Roman,serif" font-size="10.00">allow_all_origins_enabled</text>
</g>
<!-- SIMPLE_CORS_allow_all_methods -->
<g id="node4" class="node">
<title>SIMPLE_CORS_allow_all_methods</title>
<polygon fill="lightgray" stroke="black" points="199.62,-167.38 104.87,-167.38 104.87,-131.38 199.62,-131.38 199.62,-167.38"/>
<text xml:space="preserve" text-anchor="middle" x="152.25" y="-145.5" font-family="Times New Roman,serif" font-size="10.00">allow_all_methods</text>
</g>
<!-- SIMPLE_CORS_allow_all_headers -->
<g id="node5" class="node">
<title>SIMPLE_CORS_allow_all_headers</title>
<polygon fill="lightgray" stroke="black" points="160.75,-55.37 69.75,-55.37 69.75,-19.37 160.75,-19.37 160.75,-55.37"/>
<text xml:space="preserve" text-anchor="middle" x="115.25" y="-33.5" font-family="Times New Roman,serif" font-size="10.00">allow_all_headers</text>
</g>
<!-- LIB_TESTS_test_make_default -->
<g id="node6" class="node">
<title>LIB_TESTS_test_make_default</title>
<polygon fill="lightgray" stroke="black" points="205.12,-301.88 114.12,-301.88 114.12,-265.88 205.12,-265.88 205.12,-301.88"/>
<text xml:space="preserve" text-anchor="middle" x="159.62" y="-280" font-family="Times New Roman,serif" font-size="10.00">test_make_default</text>
</g>
<!-- TEST_APP_make -->
<g id="node7" class="node">
<title>TEST_APP_make</title>
<polygon fill="lightcoral" stroke="black" points="301.63,-264.38 247.63,-264.38 247.63,-228.38 301.63,-228.38 301.63,-264.38"/>
<text xml:space="preserve" text-anchor="middle" x="274.63" y="-242.5" font-family="Times New Roman,serif" font-size="10.00">make</text>
</g>
<!-- TEST_APP_tests -->
<g id="node8" class="node">
<title>TEST_APP_tests</title>
<polygon fill="lightgray" stroke="black" points="346.63,-319.38 292.63,-319.38 292.63,-283.38 346.63,-283.38 346.63,-319.38"/>
<text xml:space="preserve" text-anchor="middle" x="319.63" y="-297.5" font-family="Times New Roman,serif" font-size="10.00">tests</text>
</g>
<!-- TEST_APP_passed -->
<g id="node9" class="node">
<title>TEST_APP_passed</title>
<polygon fill="lightgray" stroke="black" points="411.62,-374.38 357.62,-374.38 357.62,-338.38 411.62,-338.38 411.62,-374.38"/>
<text xml:space="preserve" text-anchor="middle" x="384.62" y="-352.5" font-family="Times New Roman,serif" font-size="10.00">passed</text>
</g>
<!-- TEST_APP_failed -->
<g id="node10" class="node">
<title>TEST_APP_failed</title>
<polygon fill="lightgray" stroke="black" points="336.63,-379.38 282.63,-379.38 282.63,-343.38 336.63,-343.38 336.63,-379.38"/>
<text xml:space="preserve" text-anchor="middle" x="309.63" y="-357.5" font-family="Times New Roman,serif" font-size="10.00">failed</text>
</g>
<!-- TEST_APP_run_test -->
<g id="node11" class="node">
<title>TEST_APP_run_test</title>
<polygon fill="lightcoral" stroke="black" points="421.63,-294.38 367.63,-294.38 367.63,-258.38 421.63,-258.38 421.63,-294.38"/>
<text xml:space="preserve" text-anchor="middle" x="394.63" y="-272.5" font-family="Times New Roman,serif" font-size="10.00">run_test</text>
</g>
<!-- legend_full -->
<g id="node12" class="node">
<title>legend_full</title>
<polygon fill="palegreen" stroke="black" points="449.81,-105 335.56,-105 335.56,-64 449.81,-64 449.81,-105"/>
<text xml:space="preserve" text-anchor="middle" x="392.69" y="-87.7" font-family="Times New Roman,serif" font-size="14.00">Full Contract</text>
<text xml:space="preserve" text-anchor="middle" x="392.69" y="-71.2" font-family="Times New Roman,serif" font-size="14.00">(require + ensure)</text>
</g>
<!-- legend_partial -->
<g id="node13" class="node">
<title>legend_partial</title>
<polygon fill="khaki" stroke="black" points="460.31,-41 343.06,-41 343.06,0 460.31,0 460.31,-41"/>
<text xml:space="preserve" text-anchor="middle" x="401.69" y="-23.7" font-family="Times New Roman,serif" font-size="14.00">Partial Contract</text>
<text xml:space="preserve" text-anchor="middle" x="401.69" y="-7.2" font-family="Times New Roman,serif" font-size="14.00">(require or ensure)</text>
</g>
<!-- legend_none -->
<g id="node14" class="node">
<title>legend_none</title>
<polygon fill="lightcoral" stroke="black" points="442.06,-163.5 359.31,-163.5 359.31,-127.5 442.06,-127.5 442.06,-163.5"/>
<text xml:space="preserve" text-anchor="middle" x="400.69" y="-140.45" font-family="Times New Roman,serif" font-size="14.00">No Contract</text>
</g>
<!-- legend_attr -->
<g id="node15" class="node">
<title>legend_attr</title>
<polygon fill="lightgray" stroke="black" points="336.06,-169 271.31,-169 271.31,-128 336.06,-128 336.06,-169"/>
<text xml:space="preserve" text-anchor="middle" x="303.69" y="-151.7" font-family="Times New Roman,serif" font-size="14.00">Attribute</text>
<text xml:space="preserve" text-anchor="middle" x="303.69" y="-135.2" font-family="Times New Roman,serif" font-size="14.00">(n/a)</text>
</g>
<!-- legend_stats -->
<g id="node16" class="node">
<title>legend_stats</title>
<polygon fill="white" stroke="black" points="306.44,-107 246.94,-107 246.94,0 312.44,0 312.44,-101 306.44,-107"/>
<polyline fill="none" stroke="black" points="306.44,-107 306.44,-101"/>
<polyline fill="none" stroke="black" points="312.44,-101 306.44,-101"/>
<text xml:space="preserve" text-anchor="middle" x="279.69" y="-89.7" font-family="Times New Roman,serif" font-size="14.00">Statistics</text>
<text xml:space="preserve" text-anchor="middle" x="279.69" y="-73.2" font-family="Times New Roman,serif" font-size="14.00">Full: 0</text>
<text xml:space="preserve" text-anchor="middle" x="279.69" y="-56.7" font-family="Times New Roman,serif" font-size="14.00">Partial: 1</text>
<text xml:space="preserve" text-anchor="middle" x="279.69" y="-40.2" font-family="Times New Roman,serif" font-size="14.00">None: 2</text>
<text xml:space="preserve" text-anchor="middle" x="279.69" y="-23.7" font-family="Times New Roman,serif" font-size="14.00">Attr: 9</text>
<text xml:space="preserve" text-anchor="middle" x="279.69" y="-7.2" font-family="Times New Roman,serif" font-size="14.00">Total: 12</text>
</g>
</g>
</svg>
